<svg xmlns="http://www.w3.org/2000/svg" width="800" height="800" viewBox="0 0 800 800">
  <path d="M-300.00,0.00 A100.00,100.00 0 0 1 -100.00,0.00" fill="none" stroke="#d9333f" stroke-width="2.5"/>
  <path d="M-275.00,0.00 A75.00,75.00 0 0 1 -125.00,0.00" fill="none" stroke="#d9333f" stroke-width="2.5"/>
  <path d="M-250.00,0.00 A50.00,50.00 0 0 1 -150.00,0.00" fill="none" stroke="#d9333f" stroke-width="2.5"/>
  <path d="M-225.00,0.00 A25.00,25.00 0 0 1 -175.00,0.00" fill="none" stroke="#d9333f" stroke-width="2.5"/>
  <path d="M-100.00,0.00 A100.00,100.00 0 0 1 100.00,0.00" fill="none" stroke="#d9333f" stroke-width="2.5"/>
  <path d="M-75.00,0.00 A75.00,75.00 0 0 1 75.00,0.00" fill="none" stroke="#d9333f" stroke-width="2.5"/>
  <path d="M-50.00,0.00 A50.00,50.00 0 0 1 50.00,0.00" fill="none" stroke="#d9333f" stroke-width="2.5"/>
  <path d="M-25.00,0.00 A25.00,25.00 0 0 1 25.00,0.00" fill="none" stroke="#d9333f" stroke-width="2.5"/>
  <path d="M100.00,0.00 A100.00,100.00 0 0 1 300.00,0.00" fill="none" stroke="#d9333f" stroke-width="2.5"/>
  <path d="M125.00,0.00 A75.00,75.00 0 0 1 275.00,0.00" fill="none" stroke="#d9333f" stroke-width="2.5"/>
  <path d="M150.00,0.00 A50.00,50.00 0 0 1 250.00,0.00" fill="none" stroke="#d9333f" stroke-width="2.5"/>
  <path d="M175.00,0.00 A25.00,25.00 0 0 1 225.00,0.00" fill="none" stroke="#d9333f" stroke-width="2.5"/>
  <path d="M300.00,0.00 A100.00,100.00 0 0 1 500.00,0.00" fill="none" stroke="#d9333f" stroke-width="2.5"/>
  <path d="M325.00,0.00 A75.00,75.00 0 0 1 475.00,0.00" fill="none" stroke="#d9333f" stroke-width="2.5"/>
  <path d="M350.00,0.00 A50.00,50.00 0 0 1 450.00,0.00" fill="none" stroke="#d9333f" stroke-width="2.5"/>
  <path d="M375.00,0.00 A25.00,25.00 0 0 1 425.00,0.00" fill="none" stroke="#d9333f" stroke-width="2.5"/>
  <path d="M500.00,0.00 A100.00,100.00 0 0 1 700.00,0.00" fill="none" stroke="#d9333f" stroke-width="2.5"/>
  <path d="M525.00,0.00 A75.00,75.00 0 0 1 675.00,0.00" fill="none" stroke="#d9333f" stroke-width="2.5"/>
  <path d="M550.00,0.00 A50.00,50.00 0 0 1 650.00,0.00" fill="none" stroke="#d9333f" stroke-width="2.5"/>
  <path d="M575.00,0.00 A25.00,25.00 0 0 1 625.00,0.00" fill="none" stroke="#d9333f" stroke-width="2.5"/>
  <path d="M700.00,0.00 A100.00,100.00 0 0 1 900.00,0.00" fill="none" stroke="#d9333f" stroke-width="2.5"/>
  <path d="M725.00,0.00 A75.00,75.00 0 0 1 875.00,0.00" fill="none" stroke="#d9333f" stroke-width="2.5"/>
  <path d="M750.00,0.00 A50.00,50.00 0 0 1 850.00,0.00" fill="none" stroke="#d9333f" stroke-width="2.5"/>
  <path d="M775.00,0.00 A25.00,25.00 0 0 1 825.00,0.00" fill="none" stroke="#d9333f" stroke-width="2.5"/>
  <path d="M900.00,0.00 A100.00,100.00 0 0 1 1100.00,0.00" fill="none" stroke="#d9333f" stroke-width="2.5"/>
  <path d="M925.00,0.00 A75.00,75.00 0 0 1 1075.00,0.00" fill="none" stroke="#d9333f" stroke-width="2.5"/>
  <path d="M950.00,0.00 A50.00,50.00 0 0 1 1050.00,0.00" fill="none" stroke="#d9333f" stroke-width="2.5"/>
  <path d="M975.00,0.00 A25.00,25.00 0 0 1 1025.00,0.00" fill="none" stroke="#d9333f" stroke-width="2.5"/>
  <path d="M1100.00,0.00 A100.00,100.00 0 0 1 1300.00,0.00" fill="none" stroke="#d9333f" stroke-width="2.5"/>
  <path d="M1125.00,0.00 A75.00,75.00 0 0 1 1275.00,0.00" fill="none" stroke="#d9333f" stroke-width="2.5"/>
  <path d="M1150.00,0.00 A50.00,50.00 0 0 1 1250.00,0.00" fill="none" stroke="#d9333f" stroke-width="2.5"/>
  <path d="M1175.00,0.00 A25.00,25.00 0 0 1 1225.00,0.00" fill="none" stroke="#d9333f" stroke-width="2.5"/>
  <path d="M-200.00,50.00 A100.00,100.00 0 0 1 0.00,50.00" fill="none" stroke="#d9333f" stroke-width="2.5"/>
  <path d="M-175.00,50.00 A75.00,75.00 0 0 1 -25.00,50.00" fill="none" stroke="#d9333f" stroke-width="2.5"/>
  <path d="M-150.00,50.00 A50.00,50.00 0 0 1 -50.00,50.00" fill="none" stroke="#d9333f" stroke-width="2.5"/>
  <path d="M-125.00,50.00 A25.00,25.00 0 0 1 -75.00,50.00" fill="none" stroke="#d9333f" stroke-width="2.5"/>
  <path d="M0.00,50.00 A100.00,100.00 0 0 1 200.00,50.00" fill="none" stroke="#d9333f" stroke-width="2.5"/>
  <path d="M25.00,50.00 A75.00,75.00 0 0 1 175.00,50.00" fill="none" stroke="#d9333f" stroke-width="2.5"/>
  <path d="M50.00,50.00 A50.00,50.00 0 0 1 150.00,50.00" fill="none" stroke="#d9333f" stroke-width="2.5"/>
  <path d="M75.00,50.00 A25.00,25.00 0 0 1 125.00,50.00" fill="none" stroke="#d9333f" stroke-width="2.5"/>
  <path d="M200.00,50.00 A100.00,100.00 0 0 1 400.00,50.00" fill="none" stroke="#d9333f" stroke-width="2.5"/>
  <path d="M225.00,50.00 A75.00,75.00 0 0 1 375.00,50.00" fill="none" stroke="#d9333f" stroke-width="2.5"/>
  <path d="M250.00,50.00 A50.00,50.00 0 0 1 350.00,50.00" fill="none" stroke="#d9333f" stroke-width="2.5"/>
  <path d="M275.00,50.00 A25.00,25.00 0 0 1 325.00,50.00" fill="none" stroke="#d9333f" stroke-width="2.5"/>
  <path d="M400.00,50.00 A100.00,100.00 0 0 1 600.00,50.00" fill="none" stroke="#d9333f" stroke-width="2.5"/>
  <path d="M425.00,50.00 A75.00,75.00 0 0 1 575.00,50.00" fill="none" stroke="#d9333f" stroke-width="2.5"/>
  <path d="M450.00,50.00 A50.00,50.00 0 0 1 550.00,50.00" fill="none" stroke="#d9333f" stroke-width="2.5"/>
  <path d="M475.00,50.00 A25.00,25.00 0 0 1 525.00,50.00" fill="none" stroke="#d9333f" stroke-width="2.5"/>
  <path d="M600.00,50.00 A100.00,100.00 0 0 1 800.00,50.00" fill="none" stroke="#d9333f" stroke-width="2.5"/>
  <path d="M625.00,50.00 A75.00,75.00 0 0 1 775.00,50.00" fill="none" stroke="#d9333f" stroke-width="2.5"/>
  <path d="M650.00,50.00 A50.00,50.00 0 0 1 750.00,50.00" fill="none" stroke="#d9333f" stroke-width="2.5"/>
  <path d="M675.00,50.00 A25.00,25.00 0 0 1 725.00,50.00" fill="none" stroke="#d9333f" stroke-width="2.5"/>
  <path d="M800.00,50.00 A100.00,100.00 0 0 1 1000.00,50.00" fill="none" stroke="#d9333f" stroke-width="2.5"/>
  <path d="M825.00,50.00 A75.00,75.00 0 0 1 975.00,50.00" fill="none" stroke="#d9333f" stroke-width="2.5"/>
  <path d="M850.00,50.00 A50.00,50.00 0 0 1 950.00,50.00" fill="none" stroke="#d9333f" stroke-width="2.5"/>
  <path d="M875.00,50.00 A25.00,25.00 0 0 1 925.00,50.00" fill="none" stroke="#d9333f" stroke-width="2.5"/>
  <path d="M1000.00,50.00 A100.00,100.00 0 0 1 1200.00,50.00" fill="none" stroke="#d9333f" stroke-width="2.5"/>
  <path d="M1025.00,50.00 A75.00,75.00 0 0 1 1175.00,50.00" fill="none" stroke="#d9333f" stroke-width="2.5"/>
  <path d="M1050.00,50.00 A50.00,50.00 0 0 1 1150.00,50.00" fill="none" stroke="#d9333f" stroke-width="2.5"/>
  <path d="M1075.00,50.00 A25.00,25.00 0 0 1 1125.00,50.00" fill="none" stroke="#d9333f" stroke-width="2.5"/>
  <path d="M1200.00,50.00 A100.00,100.00 0 0 1 1400.00,50.00" fill="none" stroke="#d9333f" stroke-width="2.5"/>
  <path d="M1225.00,50.00 A75.00,75.00 0 0 1 1375.00,50.00" fill="none" stroke="#d9333f" stroke-width="2.5"/>
  <path d="M1250.00,50.00 A50.00,50.00 0 0 1 1350.00,50.00" fill="none" stroke="#d9333f" stroke-width="2.5"/>
  <path d="M1275.00,50.00 A25.00,25.00 0 0 1 1325.00,50.00" fill="none" stroke="#d9333f" stroke-width="2.5"/>
  <path d="M-300.00,100.00 A100.00,100.00 0 0 1 -100.00,100.00" fill="none" stroke="#d9333f" stroke-width="2.5"/>
  <path d="M-275.00,100.00 A75.00,75.00 0 0 1 -125.00,100.00" fill="none" stroke="#d9333f" stroke-width="2.5"/>
  <path d="M-250.00,100.00 A50.00,50.00 0 0 1 -150.00,100.00" fill="none" stroke="#d9333f" stroke-width="2.5"/>
  <path d="M-225.00,100.00 A25.00,25.00 0 0 1 -175.00,100.00" fill="none" stroke="#d9333f" stroke-width="2.5"/>
  <path d="M-100.00,100.00 A100.00,100.00 0 0 1 100.00,100.00" fill="none" stroke="#d9333f" stroke-width="2.5"/>
  <path d="M-75.00,100.00 A75.00,75.00 0 0 1 75.00,100.00" fill="none" stroke="#d9333f" stroke-width="2.5"/>
  <path d="M-50.00,100.00 A50.00,50.00 0 0 1 50.00,100.00" fill="none" stroke="#d9333f" stroke-width="2.5"/>
  <path d="M-25.00,100.00 A25.00,25.00 0 0 1 25.00,100.00" fill="none" stroke="#d9333f" stroke-width="2.5"/>
  <path d="M100.00,100.00 A100.00,100.00 0 0 1 300.00,100.00" fill="none" stroke="#d9333f" stroke-width="2.5"/>
  <path d="M125.00,100.00 A75.00,75.00 0 0 1 275.00,100.00" fill="none" stroke="#d9333f" stroke-width="2.5"/>
  <path d="M150.00,100.00 A50.00,50.00 0 0 1 250.00,100.00" fill="none" stroke="#d9333f" stroke-width="2.5"/>
  <path d="M175.00,100.00 A25.00,25.00 0 0 1 225.00,100.00" fill="none" stroke="#d9333f" stroke-width="2.5"/>
  <path d="M300.00,100.00 A100.00,100.00 0 0 1 500.00,100.00" fill="none" stroke="#d9333f" stroke-width="2.5"/>
  <path d="M325.00,100.00 A75.00,75.00 0 0 1 475.00,100.00" fill="none" stroke="#d9333f" stroke-width="2.5"/>
  <path d="M350.00,100.00 A50.00,50.00 0 0 1 450.00,100.00" fill="none" stroke="#d9333f" stroke-width="2.5"/>
  <path d="M375.00,100.00 A25.00,25.00 0 0 1 425.00,100.00" fill="none" stroke="#d9333f" stroke-width="2.5"/>
  <path d="M500.00,100.00 A100.00,100.00 0 0 1 700.00,100.00" fill="none" stroke="#d9333f" stroke-width="2.5"/>
  <path d="M525.00,100.00 A75.00,75.00 0 0 1 675.00,100.00" fill="none" stroke="#d9333f" stroke-width="2.5"/>
  <path d="M550.00,100.00 A50.00,50.00 0 0 1 650.00,100.00" fill="none" stroke="#d9333f" stroke-width="2.5"/>
  <path d="M575.00,100.00 A25.00,25.00 0 0 1 625.00,100.00" fill="none" stroke="#d9333f" stroke-width="2.5"/>
  <path d="M700.00,100.00 A100.00,100.00 0 0 1 900.00,100.00" fill="none" stroke="#d9333f" stroke-width="2.5"/>
  <path d="M725.00,100.00 A75.00,75.00 0 0 1 875.00,100.00" fill="none" stroke="#d9333f" stroke-width="2.5"/>
  <path d="M750.00,100.00 A50.00,50.00 0 0 1 850.00,100.00" fill="none" stroke="#d9333f" stroke-width="2.5"/>
  <path d="M775.00,100.00 A25.00,25.00 0 0 1 825.00,100.00" fill="none" stroke="#d9333f" stroke-width="2.5"/>
  <path d="M900.00,100.00 A100.00,100.00 0 0 1 1100.00,100.00" fill="none" stroke="#d9333f" stroke-width="2.5"/>
  <path d="M925.00,100.00 A75.00,75.00 0 0 1 1075.00,100.00" fill="none" stroke="#d9333f" stroke-width="2.5"/>
  <path d="M950.00,100.00 A50.00,50.00 0 0 1 1050.00,100.00" fill="none" stroke="#d9333f" stroke-width="2.5"/>
  <path d="M975.00,100.00 A25.00,25.00 0 0 1 1025.00,100.00" fill="none" stroke="#d9333f" stroke-width="2.5"/>
  <path d="M1100.00,100.00 A100.00,100.00 0 0 1 1300.00,100.00" fill="none" stroke="#d9333f" stroke-width="2.5"/>
  <path d="M1125.00,100.00 A75.00,75.00 0 0 1 1275.00,100.00" fill="none" stroke="#d9333f" stroke-width="2.5"/>
  <path d="M1150.00,100.00 A50.00,50.00 0 0 1 1250.00,100.00" fill="none" stroke="#d9333f" stroke-width="2.5"/>
  <path d="M1175.00,100.00 A25.00,25.00 0 0 1 1225.00,100.00" fill="none" stroke="#d9333f" stroke-width="2.5"/>
  <path d="M-200.00,150.00 A100.00,100.00 0 0 1 0.00,150.00" fill="none" stroke="#d9333f" stroke-width="2.5"/>
  <path d="M-175.00,150.00 A75.00,75.00 0 0 1 -25.00,150.00" fill="none" stroke="#d9333f" stroke-width="2.5"/>
  <path d="M-150.00,150.00 A50.00,50.00 0 0 1 -50.00,150.00" fill="none" stroke="#d9333f" stroke-width="2.5"/>
  <path d="M-125.00,150.00 A25.00,25.00 0 0 1 -75.00,150.00" fill="none" stroke="#d9333f" stroke-width="2.5"/>
  <path d="M0.00,150.00 A100.00,100.00 0 0 1 200.00,150.00" fill="none" stroke="#d9333f" stroke-width="2.5"/>
  <path d="M25.00,150.00 A75.00,75.00 0 0 1 175.00,150.00" fill="none" stroke="#d9333f" stroke-width="2.5"/>
  <path d="M50.00,150.00 A50.00,50.00 0 0 1 150.00,150.00" fill="none" stroke="#d9333f" stroke-width="2.5"/>
  <path d="M75.00,150.00 A25.00,25.00 0 0 1 125.00,150.00" fill="none" stroke="#d9333f" stroke-width="2.5"/>
  <path d="M200.00,150.00 A100.00,100.00 0 0 1 400.00,150.00" fill="none" stroke="#d9333f" stroke-width="2.5"/>
  <path d="M225.00,150.00 A75.00,75.00 0 0 1 375.00,150.00" fill="none" stroke="#d9333f" stroke-width="2.5"/>
  <path d="M250.00,150.00 A50.00,50.00 0 0 1 350.00,150.00" fill="none" stroke="#d9333f" stroke-width="2.5"/>
  <path d="M275.00,150.00 A25.00,25.00 0 0 1 325.00,150.00" fill="none" stroke="#d9333f" stroke-width="2.5"/>
  <path d="M400.00,150.00 A100.00,100.00 0 0 1 600.00,150.00" fill="none" stroke="#d9333f" stroke-width="2.5"/>
  <path d="M425.00,150.00 A75.00,75.00 0 0 1 575.00,150.00" fill="none" stroke="#d9333f" stroke-width="2.5"/>
  <path d="M450.00,150.00 A50.00,50.00 0 0 1 550.00,150.00" fill="none" stroke="#d9333f" stroke-width="2.5"/>
  <path d="M475.00,150.00 A25.00,25.00 0 0 1 525.00,150.00" fill="none" stroke="#d9333f" stroke-width="2.5"/>
  <path d="M600.00,150.00 A100.00,100.00 0 0 1 800.00,150.00" fill="none" stroke="#d9333f" stroke-width="2.5"/>
  <path d="M625.00,150.00 A75.00,75.00 0 0 1 775.00,150.00" fill="none" stroke="#d9333f" stroke-width="2.5"/>
  <path d="M650.00,150.00 A50.00,50.00 0 0 1 750.00,150.00" fill="none" stroke="#d9333f" stroke-width="2.5"/>
  <path d="M675.00,150.00 A25.00,25.00 0 0 1 725.00,150.00" fill="none" stroke="#d9333f" stroke-width="2.5"/>
  <path d="M800.00,150.00 A100.00,100.00 0 0 1 1000.00,150.00" fill="none" stroke="#d9333f" stroke-width="2.5"/>
  <path d="M825.00,150.00 A75.00,75.00 0 0 1 975.00,150.00" fill="none" stroke="#d9333f" stroke-width="2.5"/>
  <path d="M850.00,150.00 A50.00,50.00 0 0 1 950.00,150.00" fill="none" stroke="#d9333f" stroke-width="2.5"/>
  <path d="M875.00,150.00 A25.00,25.00 0 0 1 925.00,150.00" fill="none" stroke="#d9333f" stroke-width="2.5"/>
  <path d="M1000.00,150.00 A100.00,100.00 0 0 1 1200.00,150.00" fill="none" stroke="#d9333f" stroke-width="2.5"/>
  <path d="M1025.00,150.00 A75.00,75.00 0 0 1 1175.00,150.00" fill="none" stroke="#d9333f" stroke-width="2.5"/>
  <path d="M1050.00,150.00 A50.00,50.00 0 0 1 1150.00,150.00" fill="none" stroke="#d9333f" stroke-width="2.5"/>
  <path d="M1075.00,150.00 A25.00,25.00 0 0 1 1125.00,150.00" fill="none" stroke="#d9333f" stroke-width="2.5"/>
  <path d="M1200.00,150.00 A100.00,100.00 0 0 1 1400.00,150.00" fill="none" stroke="#d9333f" stroke-width="2.5"/>
  <path d="M1225.00,150.00 A75.00,75.00 0 0 1 1375.00,150.00" fill="none" stroke="#d9333f" stroke-width="2.5"/>
  <path d="M1250.00,150.00 A50.00,50.00 0 0 1 1350.00,150.00" fill="none" stroke="#d9333f" stroke-width="2.5"/>
  <path d="M1275.00,150.00 A25.00,25.00 0 0 1 1325.00,150.00" fill="none" stroke="#d9333f" stroke-width="2.5"/>
  <path d="M-300.00,200.00 A100.00,100.00 0 0 1 -100.00,200.00" fill="none" stroke="#d9333f" stroke-width="2.5"/>
  <path d="M-275.00,200.00 A75.00,75.00 0 0 1 -125.00,200.00" fill="none" stroke="#d9333f" stroke-width="2.5"/>
  <path d="M-250.00,200.00 A50.00,50.00 0 0 1 -150.00,200.00" fill="none" stroke="#d9333f" stroke-width="2.5"/>
  <path d="M-225.00,200.00 A25.00,25.00 0 0 1 -175.00,200.00" fill="none" stroke="#d9333f" stroke-width="2.5"/>
  <path d="M-100.00,200.00 A100.00,100.00 0 0 1 100.00,200.00" fill="none" stroke="#d9333f" stroke-width="2.5"/>
  <path d="M-75.00,200.00 A75.00,75.00 0 0 1 75.00,200.00" fill="none" stroke="#d9333f" stroke-width="2.5"/>
  <path d="M-50.00,200.00 A50.00,50.00 0 0 1 50.00,200.00" fill="none" stroke="#d9333f" stroke-width="2.5"/>
  <path d="M-25.00,200.00 A25.00,25.00 0 0 1 25.00,200.00" fill="none" stroke="#d9333f" stroke-width="2.5"/>
  <path d="M100.00,200.00 A100.00,100.00 0 0 1 300.00,200.00" fill="none" stroke="#d9333f" stroke-width="2.5"/>
  <path d="M125.00,200.00 A75.00,75.00 0 0 1 275.00,200.00" fill="none" stroke="#d9333f" stroke-width="2.5"/>
  <path d="M150.00,200.00 A50.00,50.00 0 0 1 250.00,200.00" fill="none" stroke="#d9333f" stroke-width="2.5"/>
  <path d="M175.00,200.00 A25.00,25.00 0 0 1 225.00,200.00" fill="none" stroke="#d9333f" stroke-width="2.5"/>
  <path d="M300.00,200.00 A100.00,100.00 0 0 1 500.00,200.00" fill="none" stroke="#d9333f" stroke-width="2.5"/>
  <path d="M325.00,200.00 A75.00,75.00 0 0 1 475.00,200.00" fill="none" stroke="#d9333f" stroke-width="2.5"/>
  <path d="M350.00,200.00 A50.00,50.00 0 0 1 450.00,200.00" fill="none" stroke="#d9333f" stroke-width="2.5"/>
  <path d="M375.00,200.00 A25.00,25.00 0 0 1 425.00,200.00" fill="none" stroke="#d9333f" stroke-width="2.5"/>
  <path d="M500.00,200.00 A100.00,100.00 0 0 1 700.00,200.00" fill="none" stroke="#d9333f" stroke-width="2.5"/>
  <path d="M525.00,200.00 A75.00,75.00 0 0 1 675.00,200.00" fill="none" stroke="#d9333f" stroke-width="2.5"/>
  <path d="M550.00,200.00 A50.00,50.00 0 0 1 650.00,200.00" fill="none" stroke="#d9333f" stroke-width="2.5"/>
  <path d="M575.00,200.00 A25.00,25.00 0 0 1 625.00,200.00" fill="none" stroke="#d9333f" stroke-width="2.5"/>
  <path d="M700.00,200.00 A100.00,100.00 0 0 1 900.00,200.00" fill="none" stroke="#d9333f" stroke-width="2.5"/>
  <path d="M725.00,200.00 A75.00,75.00 0 0 1 875.00,200.00" fill="none" stroke="#d9333f" stroke-width="2.5"/>
  <path d="M750.00,200.00 A50.00,50.00 0 0 1 850.00,200.00" fill="none" stroke="#d9333f" stroke-width="2.5"/>
  <path d="M775.00,200.00 A25.00,25.00 0 0 1 825.00,200.00" fill="none" stroke="#d9333f" stroke-width="2.5"/>
  <path d="M900.00,200.00 A100.00,100.00 0 0 1 1100.00,200.00" fill="none" stroke="#d9333f" stroke-width="2.5"/>
  <path d="M925.00,200.00 A75.00,75.00 0 0 1 1075.00,200.00" fill="none" stroke="#d9333f" stroke-width="2.5"/>
  <path d="M950.00,200.00 A50.00,50.00 0 0 1 1050.00,200.00" fill="none" stroke="#d9333f" stroke-width="2.5"/>
  <path d="M975.00,200.00 A25.00,25.00 0 0 1 1025.00,200.00" fill="none" stroke="#d9333f" stroke-width="2.5"/>
  <path d="M1100.00,200.00 A100.00,100.00 0 0 1 1300.00,200.00" fill="none" stroke="#d9333f" stroke-width="2.5"/>
  <path d="M1125.00,200.00 A75.00,75.00 0 0 1 1275.00,200.00" fill="none" stroke="#d9333f" stroke-width="2.5"/>
  <path d="M1150.00,200.00 A50.00,50.00 0 0 1 1250.00,200.00" fill="none" stroke="#d9333f" stroke-width="2.5"/>
  <path d="M1175.00,200.00 A25.00,25.00 0 0 1 1225.00,200.00" fill="none" stroke="#d9333f" stroke-width="2.5"/>
  <path d="M-200.00,250.00 A100.00,100.00 0 0 1 0.00,250.00" fill="none" stroke="#d9333f" stroke-width="2.5"/>
  <path d="M-175.00,250.00 A75.00,75.00 0 0 1 -25.00,250.00" fill="none" stroke="#d9333f" stroke-width="2.5"/>
  <path d="M-150.00,250.00 A50.00,50.00 0 0 1 -50.00,250.00" fill="none" stroke="#d9333f" stroke-width="2.5"/>
  <path d="M-125.00,250.00 A25.00,25.00 0 0 1 -75.00,250.00" fill="none" stroke="#d9333f" stroke-width="2.5"/>
  <path d="M0.00,250.00 A100.00,100.00 0 0 1 200.00,250.00" fill="none" stroke="#d9333f" stroke-width="2.5"/>
  <path d="M25.00,250.00 A75.00,75.00 0 0 1 175.00,250.00" fill="none" stroke="#d9333f" stroke-width="2.5"/>
  <path d="M50.00,250.00 A50.00,50.00 0 0 1 150.00,250.00" fill="none" stroke="#d9333f" stroke-width="2.5"/>
  <path d="M75.00,250.00 A25.00,25.00 0 0 1 125.00,250.00" fill="none" stroke="#d9333f" stroke-width="2.5"/>
  <path d="M200.00,250.00 A100.00,100.00 0 0 1 400.00,250.00" fill="none" stroke="#d9333f" stroke-width="2.5"/>
  <path d="M225.00,250.00 A75.00,75.00 0 0 1 375.00,250.00" fill="none" stroke="#d9333f" stroke-width="2.5"/>
  <path d="M250.00,250.00 A50.00,50.00 0 0 1 350.00,250.00" fill="none" stroke="#d9333f" stroke-width="2.5"/>
  <path d="M275.00,250.00 A25.00,25.00 0 0 1 325.00,250.00" fill="none" stroke="#d9333f" stroke-width="2.5"/>
  <path d="M400.00,250.00 A100.00,100.00 0 0 1 600.00,250.00" fill="none" stroke="#d9333f" stroke-width="2.5"/>
  <path d="M425.00,250.00 A75.00,75.00 0 0 1 575.00,250.00" fill="none" stroke="#d9333f" stroke-width="2.5"/>
  <path d="M450.00,250.00 A50.00,50.00 0 0 1 550.00,250.00" fill="none" stroke="#d9333f" stroke-width="2.5"/>
  <path d="M475.00,250.00 A25.00,25.00 0 0 1 525.00,250.00" fill="none" stroke="#d9333f" stroke-width="2.5"/>
  <path d="M600.00,250.00 A100.00,100.00 0 0 1 800.00,250.00" fill="none" stroke="#d9333f" stroke-width="2.5"/>
  <path d="M625.00,250.00 A75.00,75.00 0 0 1 775.00,250.00" fill="none" stroke="#d9333f" stroke-width="2.5"/>
  <path d="M650.00,250.00 A50.00,50.00 0 0 1 750.00,250.00" fill="none" stroke="#d9333f" stroke-width="2.5"/>
  <path d="M675.00,250.00 A25.00,25.00 0 0 1 725.00,250.00" fill="none" stroke="#d9333f" stroke-width="2.5"/>
  <path d="M800.00,250.00 A100.00,100.00 0 0 1 1000.00,250.00" fill="none" stroke="#d9333f" stroke-width="2.5"/>
  <path d="M825.00,250.00 A75.00,75.00 0 0 1 975.00,250.00" fill="none" stroke="#d9333f" stroke-width="2.5"/>
  <path d="M850.00,250.00 A50.00,50.00 0 0 1 950.00,250.00" fill="none" stroke="#d9333f" stroke-width="2.5"/>
  <path d="M875.00,250.00 A25.00,25.00 0 0 1 925.00,250.00" fill="none" stroke="#d9333f" stroke-width="2.5"/>
  <path d="M1000.00,250.00 A100.00,100.00 0 0 1 1200.00,250.00" fill="none" stroke="#d9333f" stroke-width="2.5"/>
  <path d="M1025.00,250.00 A75.00,75.00 0 0 1 1175.00,250.00" fill="none" stroke="#d9333f" stroke-width="2.5"/>
  <path d="M1050.00,250.00 A50.00,50.00 0 0 1 1150.00,250.00" fill="none" stroke="#d9333f" stroke-width="2.5"/>
  <path d="M1075.00,250.00 A25.00,25.00 0 0 1 1125.00,250.00" fill="none" stroke="#d9333f" stroke-width="2.5"/>
  <path d="M1200.00,250.00 A100.00,100.00 0 0 1 1400.00,250.00" fill="none" stroke="#d9333f" stroke-width="2.5"/>
  <path d="M1225.00,250.00 A75.00,75.00 0 0 1 1375.00,250.00" fill="none" stroke="#d9333f" stroke-width="2.5"/>
  <path d="M1250.00,250.00 A50.00,50.00 0 0 1 1350.00,250.00" fill="none" stroke="#d9333f" stroke-width="2.5"/>
  <path d="M1275.00,250.00 A25.00,25.00 0 0 1 1325.00,250.00" fill="none" stroke="#d9333f" stroke-width="2.5"/>
  <path d="M-300.00,300.00 A100.00,100.00 0 0 1 -100.00,300.00" fill="none" stroke="#d9333f" stroke-width="2.5"/>
  <path d="M-275.00,300.00 A75.00,75.00 0 0 1 -125.00,300.00" fill="none" stroke="#d9333f" stroke-width="2.5"/>
  <path d="M-250.00,300.00 A50.00,50.00 0 0 1 -150.00,300.00" fill="none" stroke="#d9333f" stroke-width="2.5"/>
  <path d="M-225.00,300.00 A25.00,25.00 0 0 1 -175.00,300.00" fill="none" stroke="#d9333f" stroke-width="2.5"/>
  <path d="M-100.00,300.00 A100.00,100.00 0 0 1 100.00,300.00" fill="none" stroke="#d9333f" stroke-width="2.5"/>
  <path d="M-75.00,300.00 A75.00,75.00 0 0 1 75.00,300.00" fill="none" stroke="#d9333f" stroke-width="2.5"/>
  <path d="M-50.00,300.00 A50.00,50.00 0 0 1 50.00,300.00" fill="none" stroke="#d9333f" stroke-width="2.5"/>
  <path d="M-25.00,300.00 A25.00,25.00 0 0 1 25.00,300.00" fill="none" stroke="#d9333f" stroke-width="2.5"/>
  <path d="M100.00,300.00 A100.00,100.00 0 0 1 300.00,300.00" fill="none" stroke="#d9333f" stroke-width="2.5"/>
  <path d="M125.00,300.00 A75.00,75.00 0 0 1 275.00,300.00" fill="none" stroke="#d9333f" stroke-width="2.5"/>
  <path d="M150.00,300.00 A50.00,50.00 0 0 1 250.00,300.00" fill="none" stroke="#d9333f" stroke-width="2.5"/>
  <path d="M175.00,300.00 A25.00,25.00 0 0 1 225.00,300.00" fill="none" stroke="#d9333f" stroke-width="2.5"/>
  <path d="M300.00,300.00 A100.00,100.00 0 0 1 500.00,300.00" fill="none" stroke="#d9333f" stroke-width="2.5"/>
  <path d="M325.00,300.00 A75.00,75.00 0 0 1 475.00,300.00" fill="none" stroke="#d9333f" stroke-width="2.5"/>
  <path d="M350.00,300.00 A50.00,50.00 0 0 1 450.00,300.00" fill="none" stroke="#d9333f" stroke-width="2.5"/>
  <path d="M375.00,300.00 A25.00,25.00 0 0 1 425.00,300.00" fill="none" stroke="#d9333f" stroke-width="2.5"/>
  <path d="M500.00,300.00 A100.00,100.00 0 0 1 700.00,300.00" fill="none" stroke="#d9333f" stroke-width="2.5"/>
  <path d="M525.00,300.00 A75.00,75.00 0 0 1 675.00,300.00" fill="none" stroke="#d9333f" stroke-width="2.5"/>
  <path d="M550.00,300.00 A50.00,50.00 0 0 1 650.00,300.00" fill="none" stroke="#d9333f" stroke-width="2.5"/>
  <path d="M575.00,300.00 A25.00,25.00 0 0 1 625.00,300.00" fill="none" stroke="#d9333f" stroke-width="2.5"/>
  <path d="M700.00,300.00 A100.00,100.00 0 0 1 900.00,300.00" fill="none" stroke="#d9333f" stroke-width="2.5"/>
  <path d="M725.00,300.00 A75.00,75.00 0 0 1 875.00,300.00" fill="none" stroke="#d9333f" stroke-width="2.5"/>
  <path d="M750.00,300.00 A50.00,50.00 0 0 1 850.00,300.00" fill="none" stroke="#d9333f" stroke-width="2.5"/>
  <path d="M775.00,300.00 A25.00,25.00 0 0 1 825.00,300.00" fill="none" stroke="#d9333f" stroke-width="2.5"/>
  <path d="M900.00,300.00 A100.00,100.00 0 0 1 1100.00,300.00" fill="none" stroke="#d9333f" stroke-width="2.5"/>
  <path d="M925.00,300.00 A75.00,75.00 0 0 1 1075.00,300.00" fill="none" stroke="#d9333f" stroke-width="2.5"/>
  <path d="M950.00,300.00 A50.00,50.00 0 0 1 1050.00,300.00" fill="none" stroke="#d9333f" stroke-width="2.5"/>
  <path d="M975.00,300.00 A25.00,25.00 0 0 1 1025.00,300.00" fill="none" stroke="#d9333f" stroke-width="2.5"/>
  <path d="M1100.00,300.00 A100.00,100.00 0 0 1 1300.00,300.00" fill="none" stroke="#d9333f" stroke-width="2.5"/>
  <path d="M1125.00,300.00 A75.00,75.00 0 0 1 1275.00,300.00" fill="none" stroke="#d9333f" stroke-width="2.5"/>
  <path d="M1150.00,300.00 A50.00,50.00 0 0 1 1250.00,300.00" fill="none" stroke="#d9333f" stroke-width="2.5"/>
  <path d="M1175.00,300.00 A25.00,25.00 0 0 1 1225.00,300.00" fill="none" stroke="#d9333f" stroke-width="2.5"/>
  <path d="M-200.00,350.00 A100.00,100.00 0 0 1 0.00,350.00" fill="none" stroke="#d9333f" stroke-width="2.5"/>
  <path d="M-175.00,350.00 A75.00,75.00 0 0 1 -25.00,350.00" fill="none" stroke="#d9333f" stroke-width="2.5"/>
  <path d="M-150.00,350.00 A50.00,50.00 0 0 1 -50.00,350.00" fill="none" stroke="#d9333f" stroke-width="2.5"/>
  <path d="M-125.00,350.00 A25.00,25.00 0 0 1 -75.00,350.00" fill="none" stroke="#d9333f" stroke-width="2.5"/>
  <path d="M0.00,350.00 A100.00,100.00 0 0 1 200.00,350.00" fill="none" stroke="#d9333f" stroke-width="2.5"/>
  <path d="M25.00,350.00 A75.00,75.00 0 0 1 175.00,350.00" fill="none" stroke="#d9333f" stroke-width="2.5"/>
  <path d="M50.00,350.00 A50.00,50.00 0 0 1 150.00,350.00" fill="none" stroke="#d9333f" stroke-width="2.5"/>
  <path d="M75.00,350.00 A25.00,25.00 0 0 1 125.00,350.00" fill="none" stroke="#d9333f" stroke-width="2.5"/>
  <path d="M200.00,350.00 A100.00,100.00 0 0 1 400.00,350.00" fill="none" stroke="#d9333f" stroke-width="2.5"/>
  <path d="M225.00,350.00 A75.00,75.00 0 0 1 375.00,350.00" fill="none" stroke="#d9333f" stroke-width="2.5"/>
  <path d="M250.00,350.00 A50.00,50.00 0 0 1 350.00,350.00" fill="none" stroke="#d9333f" stroke-width="2.5"/>
  <path d="M275.00,350.00 A25.00,25.00 0 0 1 325.00,350.00" fill="none" stroke="#d9333f" stroke-width="2.5"/>
  <path d="M400.00,350.00 A100.00,100.00 0 0 1 600.00,350.00" fill="none" stroke="#d9333f" stroke-width="2.5"/>
  <path d="M425.00,350.00 A75.00,75.00 0 0 1 575.00,350.00" fill="none" stroke="#d9333f" stroke-width="2.5"/>
  <path d="M450.00,350.00 A50.00,50.00 0 0 1 550.00,350.00" fill="none" stroke="#d9333f" stroke-width="2.5"/>
  <path d="M475.00,350.00 A25.00,25.00 0 0 1 525.00,350.00" fill="none" stroke="#d9333f" stroke-width="2.5"/>
  <path d="M600.00,350.00 A100.00,100.00 0 0 1 800.00,350.00" fill="none" stroke="#d9333f" stroke-width="2.5"/>
  <path d="M625.00,350.00 A75.00,75.00 0 0 1 775.00,350.00" fill="none" stroke="#d9333f" stroke-width="2.5"/>
  <path d="M650.00,350.00 A50.00,50.00 0 0 1 750.00,350.00" fill="none" stroke="#d9333f" stroke-width="2.5"/>
  <path d="M675.00,350.00 A25.00,25.00 0 0 1 725.00,350.00" fill="none" stroke="#d9333f" stroke-width="2.5"/>
  <path d="M800.00,350.00 A100.00,100.00 0 0 1 1000.00,350.00" fill="none" stroke="#d9333f" stroke-width="2.5"/>
  <path d="M825.00,350.00 A75.00,75.00 0 0 1 975.00,350.00" fill="none" stroke="#d9333f" stroke-width="2.5"/>
  <path d="M850.00,350.00 A50.00,50.00 0 0 1 950.00,350.00" fill="none" stroke="#d9333f" stroke-width="2.5"/>
  <path d="M875.00,350.00 A25.00,25.00 0 0 1 925.00,350.00" fill="none" stroke="#d9333f" stroke-width="2.5"/>
  <path d="M1000.00,350.00 A100.00,100.00 0 0 1 1200.00,350.00" fill="none" stroke="#d9333f" stroke-width="2.5"/>
  <path d="M1025.00,350.00 A75.00,75.00 0 0 1 1175.00,350.00" fill="none" stroke="#d9333f" stroke-width="2.5"/>
  <path d="M1050.00,350.00 A50.00,50.00 0 0 1 1150.00,350.00" fill="none" stroke="#d9333f" stroke-width="2.5"/>
  <path d="M1075.00,350.00 A25.00,25.00 0 0 1 1125.00,350.00" fill="none" stroke="#d9333f" stroke-width="2.5"/>
  <path d="M1200.00,350.00 A100.00,100.00 0 0 1 1400.00,350.00" fill="none" stroke="#d9333f" stroke-width="2.5"/>
  <path d="M1225.00,350.00 A75.00,75.00 0 0 1 1375.00,350.00" fill="none" stroke="#d9333f" stroke-width="2.5"/>
  <path d="M1250.00,350.00 A50.00,50.00 0 0 1 1350.00,350.00" fill="none" stroke="#d9333f" stroke-width="2.5"/>
  <path d="M1275.00,350.00 A25.00,25.00 0 0 1 1325.00,350.00" fill="none" stroke="#d9333f" stroke-width="2.5"/>
  <path d="M-300.00,400.00 A100.00,100.00 0 0 1 -100.00,400.00" fill="none" stroke="#d9333f" stroke-width="2.5"/>
  <path d="M-275.00,400.00 A75.00,75.00 0 0 1 -125.00,400.00" fill="none" stroke="#d9333f" stroke-width="2.5"/>
  <path d="M-250.00,400.00 A50.00,50.00 0 0 1 -150.00,400.00" fill="none" stroke="#d9333f" stroke-width="2.5"/>
  <path d="M-225.00,400.00 A25.00,25.00 0 0 1 -175.00,400.00" fill="none" stroke="#d9333f" stroke-width="2.5"/>
  <path d="M-100.00,400.00 A100.00,100.00 0 0 1 100.00,400.00" fill="none" stroke="#d9333f" stroke-width="2.5"/>
  <path d="M-75.00,400.00 A75.00,75.00 0 0 1 75.00,400.00" fill="none" stroke="#d9333f" stroke-width="2.5"/>
  <path d="M-50.00,400.00 A50.00,50.00 0 0 1 50.00,400.00" fill="none" stroke="#d9333f" stroke-width="2.5"/>
  <path d="M-25.00,400.00 A25.00,25.00 0 0 1 25.00,400.00" fill="none" stroke="#d9333f" stroke-width="2.5"/>
  <path d="M100.00,400.00 A100.00,100.00 0 0 1 300.00,400.00" fill="none" stroke="#d9333f" stroke-width="2.5"/>
  <path d="M125.00,400.00 A75.00,75.00 0 0 1 275.00,400.00" fill="none" stroke="#d9333f" stroke-width="2.5"/>
  <path d="M150.00,400.00 A50.00,50.00 0 0 1 250.00,400.00" fill="none" stroke="#d9333f" stroke-width="2.5"/>
  <path d="M175.00,400.00 A25.00,25.00 0 0 1 225.00,400.00" fill="none" stroke="#d9333f" stroke-width="2.5"/>
  <path d="M300.00,400.00 A100.00,100.00 0 0 1 500.00,400.00" fill="none" stroke="#d9333f" stroke-width="2.5"/>
  <path d="M325.00,400.00 A75.00,75.00 0 0 1 475.00,400.00" fill="none" stroke="#d9333f" stroke-width="2.5"/>
  <path d="M350.00,400.00 A50.00,50.00 0 0 1 450.00,400.00" fill="none" stroke="#d9333f" stroke-width="2.5"/>
  <path d="M375.00,400.00 A25.00,25.00 0 0 1 425.00,400.00" fill="none" stroke="#d9333f" stroke-width="2.5"/>
  <path d="M500.00,400.00 A100.00,100.00 0 0 1 700.00,400.00" fill="none" stroke="#d9333f" stroke-width="2.5"/>
  <path d="M525.00,400.00 A75.00,75.00 0 0 1 675.00,400.00" fill="none" stroke="#d9333f" stroke-width="2.5"/>
  <path d="M550.00,400.00 A50.00,50.00 0 0 1 650.00,400.00" fill="none" stroke="#d9333f" stroke-width="2.5"/>
  <path d="M575.00,400.00 A25.00,25.00 0 0 1 625.00,400.00" fill="none" stroke="#d9333f" stroke-width="2.5"/>
  <path d="M700.00,400.00 A100.00,100.00 0 0 1 900.00,400.00" fill="none" stroke="#d9333f" stroke-width="2.5"/>
  <path d="M725.00,400.00 A75.00,75.00 0 0 1 875.00,400.00" fill="none" stroke="#d9333f" stroke-width="2.5"/>
  <path d="M750.00,400.00 A50.00,50.00 0 0 1 850.00,400.00" fill="none" stroke="#d9333f" stroke-width="2.5"/>
  <path d="M775.00,400.00 A25.00,25.00 0 0 1 825.00,400.00" fill="none" stroke="#d9333f" stroke-width="2.5"/>
  <path d="M900.00,400.00 A100.00,100.00 0 0 1 1100.00,400.00" fill="none" stroke="#d9333f" stroke-width="2.5"/>
  <path d="M925.00,400.00 A75.00,75.00 0 0 1 1075.00,400.00" fill="none" stroke="#d9333f" stroke-width="2.5"/>
  <path d="M950.00,400.00 A50.00,50.00 0 0 1 1050.00,400.00" fill="none" stroke="#d9333f" stroke-width="2.5"/>
  <path d="M975.00,400.00 A25.00,25.00 0 0 1 1025.00,400.00" fill="none" stroke="#d9333f" stroke-width="2.5"/>
  <path d="M1100.00,400.00 A100.00,100.00 0 0 1 1300.00,400.00" fill="none" stroke="#d9333f" stroke-width="2.5"/>
  <path d="M1125.00,400.00 A75.00,75.00 0 0 1 1275.00,400.00" fill="none" stroke="#d9333f" stroke-width="2.5"/>
  <path d="M1150.00,400.00 A50.00,50.00 0 0 1 1250.00,400.00" fill="none" stroke="#d9333f" stroke-width="2.5"/>
  <path d="M1175.00,400.00 A25.00,25.00 0 0 1 1225.00,400.00" fill="none" stroke="#d9333f" stroke-width="2.5"/>
  <path d="M-200.00,450.00 A100.00,100.00 0 0 1 0.00,450.00" fill="none" stroke="#d9333f" stroke-width="2.5"/>
  <path d="M-175.00,450.00 A75.00,75.00 0 0 1 -25.00,450.00" fill="none" stroke="#d9333f" stroke-width="2.5"/>
  <path d="M-150.00,450.00 A50.00,50.00 0 0 1 -50.00,450.00" fill="none" stroke="#d9333f" stroke-width="2.5"/>
  <path d="M-125.00,450.00 A25.00,25.00 0 0 1 -75.00,450.00" fill="none" stroke="#d9333f" stroke-width="2.5"/>
  <path d="M0.00,450.00 A100.00,100.00 0 0 1 200.00,450.00" fill="none" stroke="#d9333f" stroke-width="2.5"/>
  <path d="M25.00,450.00 A75.00,75.00 0 0 1 175.00,450.00" fill="none" stroke="#d9333f" stroke-width="2.5"/>
  <path d="M50.00,450.00 A50.00,50.00 0 0 1 150.00,450.00" fill="none" stroke="#d9333f" stroke-width="2.5"/>
  <path d="M75.00,450.00 A25.00,25.00 0 0 1 125.00,450.00" fill="none" stroke="#d9333f" stroke-width="2.5"/>
  <path d="M200.00,450.00 A100.00,100.00 0 0 1 400.00,450.00" fill="none" stroke="#d9333f" stroke-width="2.5"/>
  <path d="M225.00,450.00 A75.00,75.00 0 0 1 375.00,450.00" fill="none" stroke="#d9333f" stroke-width="2.5"/>
  <path d="M250.00,450.00 A50.00,50.00 0 0 1 350.00,450.00" fill="none" stroke="#d9333f" stroke-width="2.5"/>
  <path d="M275.00,450.00 A25.00,25.00 0 0 1 325.00,450.00" fill="none" stroke="#d9333f" stroke-width="2.5"/>
  <path d="M400.00,450.00 A100.00,100.00 0 0 1 600.00,450.00" fill="none" stroke="#d9333f" stroke-width="2.5"/>
  <path d="M425.00,450.00 A75.00,75.00 0 0 1 575.00,450.00" fill="none" stroke="#d9333f" stroke-width="2.5"/>
  <path d="M450.00,450.00 A50.00,50.00 0 0 1 550.00,450.00" fill="none" stroke="#d9333f" stroke-width="2.5"/>
  <path d="M475.00,450.00 A25.00,25.00 0 0 1 525.00,450.00" fill="none" stroke="#d9333f" stroke-width="2.5"/>
  <path d="M600.00,450.00 A100.00,100.00 0 0 1 800.00,450.00" fill="none" stroke="#d9333f" stroke-width="2.5"/>
  <path d="M625.00,450.00 A75.00,75.00 0 0 1 775.00,450.00" fill="none" stroke="#d9333f" stroke-width="2.5"/>
  <path d="M650.00,450.00 A50.00,50.00 0 0 1 750.00,450.00" fill="none" stroke="#d9333f" stroke-width="2.5"/>
  <path d="M675.00,450.00 A25.00,25.00 0 0 1 725.00,450.00" fill="none" stroke="#d9333f" stroke-width="2.5"/>
  <path d="M800.00,450.00 A100.00,100.00 0 0 1 1000.00,450.00" fill="none" stroke="#d9333f" stroke-width="2.5"/>
  <path d="M825.00,450.00 A75.00,75.00 0 0 1 975.00,450.00" fill="none" stroke="#d9333f" stroke-width="2.5"/>
  <path d="M850.00,450.00 A50.00,50.00 0 0 1 950.00,450.00" fill="none" stroke="#d9333f" stroke-width="2.5"/>
  <path d="M875.00,450.00 A25.00,25.00 0 0 1 925.00,450.00" fill="none" stroke="#d9333f" stroke-width="2.5"/>
  <path d="M1000.00,450.00 A100.00,100.00 0 0 1 1200.00,450.00" fill="none" stroke="#d9333f" stroke-width="2.5"/>
  <path d="M1025.00,450.00 A75.00,75.00 0 0 1 1175.00,450.00" fill="none" stroke="#d9333f" stroke-width="2.5"/>
  <path d="M1050.00,450.00 A50.00,50.00 0 0 1 1150.00,450.00" fill="none" stroke="#d9333f" stroke-width="2.5"/>
  <path d="M1075.00,450.00 A25.00,25.00 0 0 1 1125.00,450.00" fill="none" stroke="#d9333f" stroke-width="2.5"/>
  <path d="M1200.00,450.00 A100.00,100.00 0 0 1 1400.00,450.00" fill="none" stroke="#d9333f" stroke-width="2.5"/>
  <path d="M1225.00,450.00 A75.00,75.00 0 0 1 1375.00,450.00" fill="none" stroke="#d9333f" stroke-width="2.5"/>
  <path d="M1250.00,450.00 A50.00,50.00 0 0 1 1350.00,450.00" fill="none" stroke="#d9333f" stroke-width="2.5"/>
  <path d="M1275.00,450.00 A25.00,25.00 0 0 1 1325.00,450.00" fill="none" stroke="#d9333f" stroke-width="2.5"/>
  <path d="M-300.00,500.00 A100.00,100.00 0 0 1 -100.00,500.00" fill="none" stroke="#d9333f" stroke-width="2.5"/>
  <path d="M-275.00,500.00 A75.00,75.00 0 0 1 -125.00,500.00" fill="none" stroke="#d9333f" stroke-width="2.5"/>
  <path d="M-250.00,500.00 A50.00,50.00 0 0 1 -150.00,500.00" fill="none" stroke="#d9333f" stroke-width="2.5"/>
  <path d="M-225.00,500.00 A25.00,25.00 0 0 1 -175.00,500.00" fill="none" stroke="#d9333f" stroke-width="2.5"/>
  <path d="M-100.00,500.00 A100.00,100.00 0 0 1 100.00,500.00" fill="none" stroke="#d9333f" stroke-width="2.5"/>
  <path d="M-75.00,500.00 A75.00,75.00 0 0 1 75.00,500.00" fill="none" stroke="#d9333f" stroke-width="2.5"/>
  <path d="M-50.00,500.00 A50.00,50.00 0 0 1 50.00,500.00" fill="none" stroke="#d9333f" stroke-width="2.5"/>
  <path d="M-25.00,500.00 A25.00,25.00 0 0 1 25.00,500.00" fill="none" stroke="#d9333f" stroke-width="2.5"/>
  <path d="M100.00,500.00 A100.00,100.00 0 0 1 300.00,500.00" fill="none" stroke="#d9333f" stroke-width="2.5"/>
  <path d="M125.00,500.00 A75.00,75.00 0 0 1 275.00,500.00" fill="none" stroke="#d9333f" stroke-width="2.5"/>
  <path d="M150.00,500.00 A50.00,50.00 0 0 1 250.00,500.00" fill="none" stroke="#d9333f" stroke-width="2.5"/>
  <path d="M175.00,500.00 A25.00,25.00 0 0 1 225.00,500.00" fill="none" stroke="#d9333f" stroke-width="2.5"/>
  <path d="M300.00,500.00 A100.00,100.00 0 0 1 500.00,500.00" fill="none" stroke="#d9333f" stroke-width="2.5"/>
  <path d="M325.00,500.00 A75.00,75.00 0 0 1 475.00,500.00" fill="none" stroke="#d9333f" stroke-width="2.5"/>
  <path d="M350.00,500.00 A50.00,50.00 0 0 1 450.00,500.00" fill="none" stroke="#d9333f" stroke-width="2.5"/>
  <path d="M375.00,500.00 A25.00,25.00 0 0 1 425.00,500.00" fill="none" stroke="#d9333f" stroke-width="2.5"/>
  <path d="M500.00,500.00 A100.00,100.00 0 0 1 700.00,500.00" fill="none" stroke="#d9333f" stroke-width="2.5"/>
  <path d="M525.00,500.00 A75.00,75.00 0 0 1 675.00,500.00" fill="none" stroke="#d9333f" stroke-width="2.5"/>
  <path d="M550.00,500.00 A50.00,50.00 0 0 1 650.00,500.00" fill="none" stroke="#d9333f" stroke-width="2.5"/>
  <path d="M575.00,500.00 A25.00,25.00 0 0 1 625.00,500.00" fill="none" stroke="#d9333f" stroke-width="2.5"/>
  <path d="M700.00,500.00 A100.00,100.00 0 0 1 900.00,500.00" fill="none" stroke="#d9333f" stroke-width="2.5"/>
  <path d="M725.00,500.00 A75.00,75.00 0 0 1 875.00,500.00" fill="none" stroke="#d9333f" stroke-width="2.5"/>
  <path d="M750.00,500.00 A50.00,50.00 0 0 1 850.00,500.00" fill="none" stroke="#d9333f" stroke-width="2.5"/>
  <path d="M775.00,500.00 A25.00,25.00 0 0 1 825.00,500.00" fill="none" stroke="#d9333f" stroke-width="2.5"/>
  <path d="M900.00,500.00 A100.00,100.00 0 0 1 1100.00,500.00" fill="none" stroke="#d9333f" stroke-width="2.5"/>
  <path d="M925.00,500.00 A75.00,75.00 0 0 1 1075.00,500.00" fill="none" stroke="#d9333f" stroke-width="2.5"/>
  <path d="M950.00,500.00 A50.00,50.00 0 0 1 1050.00,500.00" fill="none" stroke="#d9333f" stroke-width="2.5"/>
  <path d="M975.00,500.00 A25.00,25.00 0 0 1 1025.00,500.00" fill="none" stroke="#d9333f" stroke-width="2.5"/>
  <path d="M1100.00,500.00 A100.00,100.00 0 0 1 1300.00,500.00" fill="none" stroke="#d9333f" stroke-width="2.5"/>
  <path d="M1125.00,500.00 A75.00,75.00 0 0 1 1275.00,500.00" fill="none" stroke="#d9333f" stroke-width="2.5"/>
  <path d="M1150.00,500.00 A50.00,50.00 0 0 1 1250.00,500.00" fill="none" stroke="#d9333f" stroke-width="2.5"/>
  <path d="M1175.00,500.00 A25.00,25.00 0 0 1 1225.00,500.00" fill="none" stroke="#d9333f" stroke-width="2.5"/>
  <path d="M-200.00,550.00 A100.00,100.00 0 0 1 0.00,550.00" fill="none" stroke="#d9333f" stroke-width="2.5"/>
  <path d="M-175.00,550.00 A75.00,75.00 0 0 1 -25.00,550.00" fill="none" stroke="#d9333f" stroke-width="2.5"/>
  <path d="M-150.00,550.00 A50.00,50.00 0 0 1 -50.00,550.00" fill="none" stroke="#d9333f" stroke-width="2.5"/>
  <path d="M-125.00,550.00 A25.00,25.00 0 0 1 -75.00,550.00" fill="none" stroke="#d9333f" stroke-width="2.5"/>
  <path d="M0.00,550.00 A100.00,100.00 0 0 1 200.00,550.00" fill="none" stroke="#d9333f" stroke-width="2.5"/>
  <path d="M25.00,550.00 A75.00,75.00 0 0 1 175.00,550.00" fill="none" stroke="#d9333f" stroke-width="2.5"/>
  <path d="M50.00,550.00 A50.00,50.00 0 0 1 150.00,550.00" fill="none" stroke="#d9333f" stroke-width="2.5"/>
  <path d="M75.00,550.00 A25.00,25.00 0 0 1 125.00,550.00" fill="none" stroke="#d9333f" stroke-width="2.5"/>
  <path d="M200.00,550.00 A100.00,100.00 0 0 1 400.00,550.00" fill="none" stroke="#d9333f" stroke-width="2.5"/>
  <path d="M225.00,550.00 A75.00,75.00 0 0 1 375.00,550.00" fill="none" stroke="#d9333f" stroke-width="2.5"/>
  <path d="M250.00,550.00 A50.00,50.00 0 0 1 350.00,550.00" fill="none" stroke="#d9333f" stroke-width="2.5"/>
  <path d="M275.00,550.00 A25.00,25.00 0 0 1 325.00,550.00" fill="none" stroke="#d9333f" stroke-width="2.5"/>
  <path d="M400.00,550.00 A100.00,100.00 0 0 1 600.00,550.00" fill="none" stroke="#d9333f" stroke-width="2.5"/>
  <path d="M425.00,550.00 A75.00,75.00 0 0 1 575.00,550.00" fill="none" stroke="#d9333f" stroke-width="2.5"/>
  <path d="M450.00,550.00 A50.00,50.00 0 0 1 550.00,550.00" fill="none" stroke="#d9333f" stroke-width="2.5"/>
  <path d="M475.00,550.00 A25.00,25.00 0 0 1 525.00,550.00" fill="none" stroke="#d9333f" stroke-width="2.5"/>
  <path d="M600.00,550.00 A100.00,100.00 0 0 1 800.00,550.00" fill="none" stroke="#d9333f" stroke-width="2.5"/>
  <path d="M625.00,550.00 A75.00,75.00 0 0 1 775.00,550.00" fill="none" stroke="#d9333f" stroke-width="2.5"/>
  <path d="M650.00,550.00 A50.00,50.00 0 0 1 750.00,550.00" fill="none" stroke="#d9333f" stroke-width="2.5"/>
  <path d="M675.00,550.00 A25.00,25.00 0 0 1 725.00,550.00" fill="none" stroke="#d9333f" stroke-width="2.5"/>
  <path d="M800.00,550.00 A100.00,100.00 0 0 1 1000.00,550.00" fill="none" stroke="#d9333f" stroke-width="2.5"/>
  <path d="M825.00,550.00 A75.00,75.00 0 0 1 975.00,550.00" fill="none" stroke="#d9333f" stroke-width="2.5"/>
  <path d="M850.00,550.00 A50.00,50.00 0 0 1 950.00,550.00" fill="none" stroke="#d9333f" stroke-width="2.5"/>
  <path d="M875.00,550.00 A25.00,25.00 0 0 1 925.00,550.00" fill="none" stroke="#d9333f" stroke-width="2.5"/>
  <path d="M1000.00,550.00 A100.00,100.00 0 0 1 1200.00,550.00" fill="none" stroke="#d9333f" stroke-width="2.5"/>
  <path d="M1025.00,550.00 A75.00,75.00 0 0 1 1175.00,550.00" fill="none" stroke="#d9333f" stroke-width="2.5"/>
  <path d="M1050.00,550.00 A50.00,50.00 0 0 1 1150.00,550.00" fill="none" stroke="#d9333f" stroke-width="2.5"/>
  <path d="M1075.00,550.00 A25.00,25.00 0 0 1 1125.00,550.00" fill="none" stroke="#d9333f" stroke-width="2.5"/>
  <path d="M1200.00,550.00 A100.00,100.00 0 0 1 1400.00,550.00" fill="none" stroke="#d9333f" stroke-width="2.5"/>
  <path d="M1225.00,550.00 A75.00,75.00 0 0 1 1375.00,550.00" fill="none" stroke="#d9333f" stroke-width="2.5"/>
  <path d="M1250.00,550.00 A50.00,50.00 0 0 1 1350.00,550.00" fill="none" stroke="#d9333f" stroke-width="2.5"/>
  <path d="M1275.00,550.00 A25.00,25.00 0 0 1 1325.00,550.00" fill="none" stroke="#d9333f" stroke-width="2.5"/>
  <path d="M-300.00,600.00 A100.00,100.00 0 0 1 -100.00,600.00" fill="none" stroke="#d9333f" stroke-width="2.5"/>
  <path d="M-275.00,600.00 A75.00,75.00 0 0 1 -125.00,600.00" fill="none" stroke="#d9333f" stroke-width="2.5"/>
  <path d="M-250.00,600.00 A50.00,50.00 0 0 1 -150.00,600.00" fill="none" stroke="#d9333f" stroke-width="2.5"/>
  <path d="M-225.00,600.00 A25.00,25.00 0 0 1 -175.00,600.00" fill="none" stroke="#d9333f" stroke-width="2.5"/>
  <path d="M-100.00,600.00 A100.00,100.00 0 0 1 100.00,600.00" fill="none" stroke="#d9333f" stroke-width="2.5"/>
  <path d="M-75.00,600.00 A75.00,75.00 0 0 1 75.00,600.00" fill="none" stroke="#d9333f" stroke-width="2.5"/>
  <path d="M-50.00,600.00 A50.00,50.00 0 0 1 50.00,600.00" fill="none" stroke="#d9333f" stroke-width="2.5"/>
  <path d="M-25.00,600.00 A25.00,25.00 0 0 1 25.00,600.00" fill="none" stroke="#d9333f" stroke-width="2.5"/>
  <path d="M100.00,600.00 A100.00,100.00 0 0 1 300.00,600.00" fill="none" stroke="#d9333f" stroke-width="2.5"/>
  <path d="M125.00,600.00 A75.00,75.00 0 0 1 275.00,600.00" fill="none" stroke="#d9333f" stroke-width="2.5"/>
  <path d="M150.00,600.00 A50.00,50.00 0 0 1 250.00,600.00" fill="none" stroke="#d9333f" stroke-width="2.5"/>
  <path d="M175.00,600.00 A25.00,25.00 0 0 1 225.00,600.00" fill="none" stroke="#d9333f" stroke-width="2.5"/>
  <path d="M300.00,600.00 A100.00,100.00 0 0 1 500.00,600.00" fill="none" stroke="#d9333f" stroke-width="2.5"/>
  <path d="M325.00,600.00 A75.00,75.00 0 0 1 475.00,600.00" fill="none" stroke="#d9333f" stroke-width="2.5"/>
  <path d="M350.00,600.00 A50.00,50.00 0 0 1 450.00,600.00" fill="none" stroke="#d9333f" stroke-width="2.5"/>
  <path d="M375.00,600.00 A25.00,25.00 0 0 1 425.00,600.00" fill="none" stroke="#d9333f" stroke-width="2.5"/>
  <path d="M500.00,600.00 A100.00,100.00 0 0 1 700.00,600.00" fill="none" stroke="#d9333f" stroke-width="2.5"/>
  <path d="M525.00,600.00 A75.00,75.00 0 0 1 675.00,600.00" fill="none" stroke="#d9333f" stroke-width="2.5"/>
  <path d="M550.00,600.00 A50.00,50.00 0 0 1 650.00,600.00" fill="none" stroke="#d9333f" stroke-width="2.5"/>
  <path d="M575.00,600.00 A25.00,25.00 0 0 1 625.00,600.00" fill="none" stroke="#d9333f" stroke-width="2.5"/>
  <path d="M700.00,600.00 A100.00,100.00 0 0 1 900.00,600.00" fill="none" stroke="#d9333f" stroke-width="2.5"/>
  <path d="M725.00,600.00 A75.00,75.00 0 0 1 875.00,600.00" fill="none" stroke="#d9333f" stroke-width="2.5"/>
  <path d="M750.00,600.00 A50.00,50.00 0 0 1 850.00,600.00" fill="none" stroke="#d9333f" stroke-width="2.5"/>
  <path d="M775.00,600.00 A25.00,25.00 0 0 1 825.00,600.00" fill="none" stroke="#d9333f" stroke-width="2.5"/>
  <path d="M900.00,600.00 A100.00,100.00 0 0 1 1100.00,600.00" fill="none" stroke="#d9333f" stroke-width="2.5"/>
  <path d="M925.00,600.00 A75.00,75.00 0 0 1 1075.00,600.00" fill="none" stroke="#d9333f" stroke-width="2.5"/>
  <path d="M950.00,600.00 A50.00,50.00 0 0 1 1050.00,600.00" fill="none" stroke="#d9333f" stroke-width="2.5"/>
  <path d="M975.00,600.00 A25.00,25.00 0 0 1 1025.00,600.00" fill="none" stroke="#d9333f" stroke-width="2.5"/>
  <path d="M1100.00,600.00 A100.00,100.00 0 0 1 1300.00,600.00" fill="none" stroke="#d9333f" stroke-width="2.5"/>
  <path d="M1125.00,600.00 A75.00,75.00 0 0 1 1275.00,600.00" fill="none" stroke="#d9333f" stroke-width="2.5"/>
  <path d="M1150.00,600.00 A50.00,50.00 0 0 1 1250.00,600.00" fill="none" stroke="#d9333f" stroke-width="2.5"/>
  <path d="M1175.00,600.00 A25.00,25.00 0 0 1 1225.00,600.00" fill="none" stroke="#d9333f" stroke-width="2.5"/>
  <path d="M-200.00,650.00 A100.00,100.00 0 0 1 0.00,650.00" fill="none" stroke="#d9333f" stroke-width="2.5"/>
  <path d="M-175.00,650.00 A75.00,75.00 0 0 1 -25.00,650.00" fill="none" stroke="#d9333f" stroke-width="2.5"/>
  <path d="M-150.00,650.00 A50.00,50.00 0 0 1 -50.00,650.00" fill="none" stroke="#d9333f" stroke-width="2.5"/>
  <path d="M-125.00,650.00 A25.00,25.00 0 0 1 -75.00,650.00" fill="none" stroke="#d9333f" stroke-width="2.5"/>
  <path d="M0.00,650.00 A100.00,100.00 0 0 1 200.00,650.00" fill="none" stroke="#d9333f" stroke-width="2.5"/>
  <path d="M25.00,650.00 A75.00,75.00 0 0 1 175.00,650.00" fill="none" stroke="#d9333f" stroke-width="2.5"/>
  <path d="M50.00,650.00 A50.00,50.00 0 0 1 150.00,650.00" fill="none" stroke="#d9333f" stroke-width="2.5"/>
  <path d="M75.00,650.00 A25.00,25.00 0 0 1 125.00,650.00" fill="none" stroke="#d9333f" stroke-width="2.5"/>
  <path d="M200.00,650.00 A100.00,100.00 0 0 1 400.00,650.00" fill="none" stroke="#d9333f" stroke-width="2.5"/>
  <path d="M225.00,650.00 A75.00,75.00 0 0 1 375.00,650.00" fill="none" stroke="#d9333f" stroke-width="2.5"/>
  <path d="M250.00,650.00 A50.00,50.00 0 0 1 350.00,650.00" fill="none" stroke="#d9333f" stroke-width="2.5"/>
  <path d="M275.00,650.00 A25.00,25.00 0 0 1 325.00,650.00" fill="none" stroke="#d9333f" stroke-width="2.5"/>
  <path d="M400.00,650.00 A100.00,100.00 0 0 1 600.00,650.00" fill="none" stroke="#d9333f" stroke-width="2.5"/>
  <path d="M425.00,650.00 A75.00,75.00 0 0 1 575.00,650.00" fill="none" stroke="#d9333f" stroke-width="2.5"/>
  <path d="M450.00,650.00 A50.00,50.00 0 0 1 550.00,650.00" fill="none" stroke="#d9333f" stroke-width="2.5"/>
  <path d="M475.00,650.00 A25.00,25.00 0 0 1 525.00,650.00" fill="none" stroke="#d9333f" stroke-width="2.5"/>
  <path d="M600.00,650.00 A100.00,100.00 0 0 1 800.00,650.00" fill="none" stroke="#d9333f" stroke-width="2.5"/>
  <path d="M625.00,650.00 A75.00,75.00 0 0 1 775.00,650.00" fill="none" stroke="#d9333f" stroke-width="2.5"/>
  <path d="M650.00,650.00 A50.00,50.00 0 0 1 750.00,650.00" fill="none" stroke="#d9333f" stroke-width="2.5"/>
  <path d="M675.00,650.00 A25.00,25.00 0 0 1 725.00,650.00" fill="none" stroke="#d9333f" stroke-width="2.5"/>
  <path d="M800.00,650.00 A100.00,100.00 0 0 1 1000.00,650.00" fill="none" stroke="#d9333f" stroke-width="2.5"/>
  <path d="M825.00,650.00 A75.00,75.00 0 0 1 975.00,650.00" fill="none" stroke="#d9333f" stroke-width="2.5"/>
  <path d="M850.00,650.00 A50.00,50.00 0 0 1 950.00,650.00" fill="none" stroke="#d9333f" stroke-width="2.5"/>
  <path d="M875.00,650.00 A25.00,25.00 0 0 1 925.00,650.00" fill="none" stroke="#d9333f" stroke-width="2.5"/>
  <path d="M1000.00,650.00 A100.00,100.00 0 0 1 1200.00,650.00" fill="none" stroke="#d9333f" stroke-width="2.5"/>
  <path d="M1025.00,650.00 A75.00,75.00 0 0 1 1175.00,650.00" fill="none" stroke="#d9333f" stroke-width="2.5"/>
  <path d="M1050.00,650.00 A50.00,50.00 0 0 1 1150.00,650.00" fill="none" stroke="#d9333f" stroke-width="2.5"/>
  <path d="M1075.00,650.00 A25.00,25.00 0 0 1 1125.00,650.00" fill="none" stroke="#d9333f" stroke-width="2.5"/>
  <path d="M1200.00,650.00 A100.00,100.00 0 0 1 1400.00,650.00" fill="none" stroke="#d9333f" stroke-width="2.5"/>
  <path d="M1225.00,650.00 A75.00,75.00 0 0 1 1375.00,650.00" fill="none" stroke="#d9333f" stroke-width="2.5"/>
  <path d="M1250.00,650.00 A50.00,50.00 0 0 1 1350.00,650.00" fill="none" stroke="#d9333f" stroke-width="2.5"/>
  <path d="M1275.00,650.00 A25.00,25.00 0 0 1 1325.00,650.00" fill="none" stroke="#d9333f" stroke-width="2.5"/>
  <path d="M-300.00,700.00 A100.00,100.00 0 0 1 -100.00,700.00" fill="none" stroke="#d9333f" stroke-width="2.5"/>
  <path d="M-275.00,700.00 A75.00,75.00 0 0 1 -125.00,700.00" fill="none" stroke="#d9333f" stroke-width="2.5"/>
  <path d="M-250.00,700.00 A50.00,50.00 0 0 1 -150.00,700.00" fill="none" stroke="#d9333f" stroke-width="2.5"/>
  <path d="M-225.00,700.00 A25.00,25.00 0 0 1 -175.00,700.00" fill="none" stroke="#d9333f" stroke-width="2.5"/>
  <path d="M-100.00,700.00 A100.00,100.00 0 0 1 100.00,700.00" fill="none" stroke="#d9333f" stroke-width="2.5"/>
  <path d="M-75.00,700.00 A75.00,75.00 0 0 1 75.00,700.00" fill="none" stroke="#d9333f" stroke-width="2.5"/>
  <path d="M-50.00,700.00 A50.00,50.00 0 0 1 50.00,700.00" fill="none" stroke="#d9333f" stroke-width="2.5"/>
  <path d="M-25.00,700.00 A25.00,25.00 0 0 1 25.00,700.00" fill="none" stroke="#d9333f" stroke-width="2.5"/>
  <path d="M100.00,700.00 A100.00,100.00 0 0 1 300.00,700.00" fill="none" stroke="#d9333f" stroke-width="2.5"/>
  <path d="M125.00,700.00 A75.00,75.00 0 0 1 275.00,700.00" fill="none" stroke="#d9333f" stroke-width="2.5"/>
  <path d="M150.00,700.00 A50.00,50.00 0 0 1 250.00,700.00" fill="none" stroke="#d9333f" stroke-width="2.5"/>
  <path d="M175.00,700.00 A25.00,25.00 0 0 1 225.00,700.00" fill="none" stroke="#d9333f" stroke-width="2.5"/>
  <path d="M300.00,700.00 A100.00,100.00 0 0 1 500.00,700.00" fill="none" stroke="#d9333f" stroke-width="2.5"/>
  <path d="M325.00,700.00 A75.00,75.00 0 0 1 475.00,700.00" fill="none" stroke="#d9333f" stroke-width="2.5"/>
  <path d="M350.00,700.00 A50.00,50.00 0 0 1 450.00,700.00" fill="none" stroke="#d9333f" stroke-width="2.5"/>
  <path d="M375.00,700.00 A25.00,25.00 0 0 1 425.00,700.00" fill="none" stroke="#d9333f" stroke-width="2.5"/>
  <path d="M500.00,700.00 A100.00,100.00 0 0 1 700.00,700.00" fill="none" stroke="#d9333f" stroke-width="2.5"/>
  <path d="M525.00,700.00 A75.00,75.00 0 0 1 675.00,700.00" fill="none" stroke="#d9333f" stroke-width="2.5"/>
  <path d="M550.00,700.00 A50.00,50.00 0 0 1 650.00,700.00" fill="none" stroke="#d9333f" stroke-width="2.5"/>
  <path d="M575.00,700.00 A25.00,25.00 0 0 1 625.00,700.00" fill="none" stroke="#d9333f" stroke-width="2.5"/>
  <path d="M700.00,700.00 A100.00,100.00 0 0 1 900.00,700.00" fill="none" stroke="#d9333f" stroke-width="2.5"/>
  <path d="M725.00,700.00 A75.00,75.00 0 0 1 875.00,700.00" fill="none" stroke="#d9333f" stroke-width="2.5"/>
  <path d="M750.00,700.00 A50.00,50.00 0 0 1 850.00,700.00" fill="none" stroke="#d9333f" stroke-width="2.5"/>
  <path d="M775.00,700.00 A25.00,25.00 0 0 1 825.00,700.00" fill="none" stroke="#d9333f" stroke-width="2.5"/>
  <path d="M900.00,700.00 A100.00,100.00 0 0 1 1100.00,700.00" fill="none" stroke="#d9333f" stroke-width="2.5"/>
  <path d="M925.00,700.00 A75.00,75.00 0 0 1 1075.00,700.00" fill="none" stroke="#d9333f" stroke-width="2.5"/>
  <path d="M950.00,700.00 A50.00,50.00 0 0 1 1050.00,700.00" fill="none" stroke="#d9333f" stroke-width="2.5"/>
  <path d="M975.00,700.00 A25.00,25.00 0 0 1 1025.00,700.00" fill="none" stroke="#d9333f" stroke-width="2.5"/>
  <path d="M1100.00,700.00 A100.00,100.00 0 0 1 1300.00,700.00" fill="none" stroke="#d9333f" stroke-width="2.5"/>
  <path d="M1125.00,700.00 A75.00,75.00 0 0 1 1275.00,700.00" fill="none" stroke="#d9333f" stroke-width="2.5"/>
  <path d="M1150.00,700.00 A50.00,50.00 0 0 1 1250.00,700.00" fill="none" stroke="#d9333f" stroke-width="2.5"/>
  <path d="M1175.00,700.00 A25.00,25.00 0 0 1 1225.00,700.00" fill="none" stroke="#d9333f" stroke-width="2.5"/>
  <path d="M-200.00,750.00 A100.00,100.00 0 0 1 0.00,750.00" fill="none" stroke="#d9333f" stroke-width="2.5"/>
  <path d="M-175.00,750.00 A75.00,75.00 0 0 1 -25.00,750.00" fill="none" stroke="#d9333f" stroke-width="2.5"/>
  <path d="M-150.00,750.00 A50.00,50.00 0 0 1 -50.00,750.00" fill="none" stroke="#d9333f" stroke-width="2.5"/>
  <path d="M-125.00,750.00 A25.00,25.00 0 0 1 -75.00,750.00" fill="none" stroke="#d9333f" stroke-width="2.5"/>
  <path d="M0.00,750.00 A100.00,100.00 0 0 1 200.00,750.00" fill="none" stroke="#d9333f" stroke-width="2.5"/>
  <path d="M25.00,750.00 A75.00,75.00 0 0 1 175.00,750.00" fill="none" stroke="#d9333f" stroke-width="2.5"/>
  <path d="M50.00,750.00 A50.00,50.00 0 0 1 150.00,750.00" fill="none" stroke="#d9333f" stroke-width="2.5"/>
  <path d="M75.00,750.00 A25.00,25.00 0 0 1 125.00,750.00" fill="none" stroke="#d9333f" stroke-width="2.5"/>
  <path d="M200.00,750.00 A100.00,100.00 0 0 1 400.00,750.00" fill="none" stroke="#d9333f" stroke-width="2.5"/>
  <path d="M225.00,750.00 A75.00,75.00 0 0 1 375.00,750.00" fill="none" stroke="#d9333f" stroke-width="2.5"/>
  <path d="M250.00,750.00 A50.00,50.00 0 0 1 350.00,750.00" fill="none" stroke="#d9333f" stroke-width="2.5"/>
  <path d="M275.00,750.00 A25.00,25.00 0 0 1 325.00,750.00" fill="none" stroke="#d9333f" stroke-width="2.5"/>
  <path d="M400.00,750.00 A100.00,100.00 0 0 1 600.00,750.00" fill="none" stroke="#d9333f" stroke-width="2.5"/>
  <path d="M425.00,750.00 A75.00,75.00 0 0 1 575.00,750.00" fill="none" stroke="#d9333f" stroke-width="2.5"/>
  <path d="M450.00,750.00 A50.00,50.00 0 0 1 550.00,750.00" fill="none" stroke="#d9333f" stroke-width="2.5"/>
  <path d="M475.00,750.00 A25.00,25.00 0 0 1 525.00,750.00" fill="none" stroke="#d9333f" stroke-width="2.5"/>
  <path d="M600.00,750.00 A100.00,100.00 0 0 1 800.00,750.00" fill="none" stroke="#d9333f" stroke-width="2.5"/>
  <path d="M625.00,750.00 A75.00,75.00 0 0 1 775.00,750.00" fill="none" stroke="#d9333f" stroke-width="2.5"/>
  <path d="M650.00,750.00 A50.00,50.00 0 0 1 750.00,750.00" fill="none" stroke="#d9333f" stroke-width="2.5"/>
  <path d="M675.00,750.00 A25.00,25.00 0 0 1 725.00,750.00" fill="none" stroke="#d9333f" stroke-width="2.5"/>
  <path d="M800.00,750.00 A100.00,100.00 0 0 1 1000.00,750.00" fill="none" stroke="#d9333f" stroke-width="2.5"/>
  <path d="M825.00,750.00 A75.00,75.00 0 0 1 975.00,750.00" fill="none" stroke="#d9333f" stroke-width="2.5"/>
  <path d="M850.00,750.00 A50.00,50.00 0 0 1 950.00,750.00" fill="none" stroke="#d9333f" stroke-width="2.5"/>
  <path d="M875.00,750.00 A25.00,25.00 0 0 1 925.00,750.00" fill="none" stroke="#d9333f" stroke-width="2.5"/>
  <path d="M1000.00,750.00 A100.00,100.00 0 0 1 1200.00,750.00" fill="none" stroke="#d9333f" stroke-width="2.5"/>
  <path d="M1025.00,750.00 A75.00,75.00 0 0 1 1175.00,750.00" fill="none" stroke="#d9333f" stroke-width="2.5"/>
  <path d="M1050.00,750.00 A50.00,50.00 0 0 1 1150.00,750.00" fill="none" stroke="#d9333f" stroke-width="2.5"/>
  <path d="M1075.00,750.00 A25.00,25.00 0 0 1 1125.00,750.00" fill="none" stroke="#d9333f" stroke-width="2.5"/>
  <path d="M1200.00,750.00 A100.00,100.00 0 0 1 1400.00,750.00" fill="none" stroke="#d9333f" stroke-width="2.5"/>
  <path d="M1225.00,750.00 A75.00,75.00 0 0 1 1375.00,750.00" fill="none" stroke="#d9333f" stroke-width="2.5"/>
  <path d="M1250.00,750.00 A50.00,50.00 0 0 1 1350.00,750.00" fill="none" stroke="#d9333f" stroke-width="2.5"/>
  <path d="M1275.00,750.00 A25.00,25.00 0 0 1 1325.00,750.00" fill="none" stroke="#d9333f" stroke-width="2.5"/>
  <path d="M-300.00,800.00 A100.00,100.00 0 0 1 -100.00,800.00" fill="none" stroke="#d9333f" stroke-width="2.5"/>
  <path d="M-275.00,800.00 A75.00,75.00 0 0 1 -125.00,800.00" fill="none" stroke="#d9333f" stroke-width="2.5"/>
  <path d="M-250.00,800.00 A50.00,50.00 0 0 1 -150.00,800.00" fill="none" stroke="#d9333f" stroke-width="2.5"/>
  <path d="M-225.00,800.00 A25.00,25.00 0 0 1 -175.00,800.00" fill="none" stroke="#d9333f" stroke-width="2.5"/>
  <path d="M-100.00,800.00 A100.00,100.00 0 0 1 100.00,800.00" fill="none" stroke="#d9333f" stroke-width="2.5"/>
  <path d="M-75.00,800.00 A75.00,75.00 0 0 1 75.00,800.00" fill="none" stroke="#d9333f" stroke-width="2.5"/>
  <path d="M-50.00,800.00 A50.00,50.00 0 0 1 50.00,800.00" fill="none" stroke="#d9333f" stroke-width="2.5"/>
  <path d="M-25.00,800.00 A25.00,25.00 0 0 1 25.00,800.00" fill="none" stroke="#d9333f" stroke-width="2.5"/>
  <path d="M100.00,800.00 A100.00,100.00 0 0 1 300.00,800.00" fill="none" stroke="#d9333f" stroke-width="2.5"/>
  <path d="M125.00,800.00 A75.00,75.00 0 0 1 275.00,800.00" fill="none" stroke="#d9333f" stroke-width="2.5"/>
  <path d="M150.00,800.00 A50.00,50.00 0 0 1 250.00,800.00" fill="none" stroke="#d9333f" stroke-width="2.5"/>
  <path d="M175.00,800.00 A25.00,25.00 0 0 1 225.00,800.00" fill="none" stroke="#d9333f" stroke-width="2.5"/>
  <path d="M300.00,800.00 A100.00,100.00 0 0 1 500.00,800.00" fill="none" stroke="#d9333f" stroke-width="2.5"/>
  <path d="M325.00,800.00 A75.00,75.00 0 0 1 475.00,800.00" fill="none" stroke="#d9333f" stroke-width="2.5"/>
  <path d="M350.00,800.00 A50.00,50.00 0 0 1 450.00,800.00" fill="none" stroke="#d9333f" stroke-width="2.5"/>
  <path d="M375.00,800.00 A25.00,25.00 0 0 1 425.00,800.00" fill="none" stroke="#d9333f" stroke-width="2.5"/>
  <path d="M500.00,800.00 A100.00,100.00 0 0 1 700.00,800.00" fill="none" stroke="#d9333f" stroke-width="2.5"/>
  <path d="M525.00,800.00 A75.00,75.00 0 0 1 675.00,800.00" fill="none" stroke="#d9333f" stroke-width="2.5"/>
  <path d="M550.00,800.00 A50.00,50.00 0 0 1 650.00,800.00" fill="none" stroke="#d9333f" stroke-width="2.5"/>
  <path d="M575.00,800.00 A25.00,25.00 0 0 1 625.00,800.00" fill="none" stroke="#d9333f" stroke-width="2.5"/>
  <path d="M700.00,800.00 A100.00,100.00 0 0 1 900.00,800.00" fill="none" stroke="#d9333f" stroke-width="2.5"/>
  <path d="M725.00,800.00 A75.00,75.00 0 0 1 875.00,800.00" fill="none" stroke="#d9333f" stroke-width="2.5"/>
  <path d="M750.00,800.00 A50.00,50.00 0 0 1 850.00,800.00" fill="none" stroke="#d9333f" stroke-width="2.5"/>
  <path d="M775.00,800.00 A25.00,25.00 0 0 1 825.00,800.00" fill="none" stroke="#d9333f" stroke-width="2.5"/>
  <path d="M900.00,800.00 A100.00,100.00 0 0 1 1100.00,800.00" fill="none" stroke="#d9333f" stroke-width="2.5"/>
  <path d="M925.00,800.00 A75.00,75.00 0 0 1 1075.00,800.00" fill="none" stroke="#d9333f" stroke-width="2.5"/>
  <path d="M950.00,800.00 A50.00,50.00 0 0 1 1050.00,800.00" fill="none" stroke="#d9333f" stroke-width="2.5"/>
  <path d="M975.00,800.00 A25.00,25.00 0 0 1 1025.00,800.00" fill="none" stroke="#d9333f" stroke-width="2.5"/>
  <path d="M1100.00,800.00 A100.00,100.00 0 0 1 1300.00,800.00" fill="none" stroke="#d9333f" stroke-width="2.5"/>
  <path d="M1125.00,800.00 A75.00,75.00 0 0 1 1275.00,800.00" fill="none" stroke="#d9333f" stroke-width="2.5"/>
  <path d="M1150.00,800.00 A50.00,50.00 0 0 1 1250.00,800.00" fill="none" stroke="#d9333f" stroke-width="2.5"/>
  <path d="M1175.00,800.00 A25.00,25.00 0 0 1 1225.00,800.00" fill="none" stroke="#d9333f" stroke-width="2.5"/>
  <path d="M-200.00,850.00 A100.00,100.00 0 0 1 0.00,850.00" fill="none" stroke="#d9333f" stroke-width="2.5"/>
  <path d="M-175.00,850.00 A75.00,75.00 0 0 1 -25.00,850.00" fill="none" stroke="#d9333f" stroke-width="2.5"/>
  <path d="M-150.00,850.00 A50.00,50.00 0 0 1 -50.00,850.00" fill="none" stroke="#d9333f" stroke-width="2.5"/>
  <path d="M-125.00,850.00 A25.00,25.00 0 0 1 -75.00,850.00" fill="none" stroke="#d9333f" stroke-width="2.5"/>
  <path d="M0.00,850.00 A100.00,100.00 0 0 1 200.00,850.00" fill="none" stroke="#d9333f" stroke-width="2.5"/>
  <path d="M25.00,850.00 A75.00,75.00 0 0 1 175.00,850.00" fill="none" stroke="#d9333f" stroke-width="2.5"/>
  <path d="M50.00,850.00 A50.00,50.00 0 0 1 150.00,850.00" fill="none" stroke="#d9333f" stroke-width="2.5"/>
  <path d="M75.00,850.00 A25.00,25.00 0 0 1 125.00,850.00" fill="none" stroke="#d9333f" stroke-width="2.5"/>
  <path d="M200.00,850.00 A100.00,100.00 0 0 1 400.00,850.00" fill="none" stroke="#d9333f" stroke-width="2.5"/>
  <path d="M225.00,850.00 A75.00,75.00 0 0 1 375.00,850.00" fill="none" stroke="#d9333f" stroke-width="2.5"/>
  <path d="M250.00,850.00 A50.00,50.00 0 0 1 350.00,850.00" fill="none" stroke="#d9333f" stroke-width="2.5"/>
  <path d="M275.00,850.00 A25.00,25.00 0 0 1 325.00,850.00" fill="none" stroke="#d9333f" stroke-width="2.5"/>
  <path d="M400.00,850.00 A100.00,100.00 0 0 1 600.00,850.00" fill="none" stroke="#d9333f" stroke-width="2.5"/>
  <path d="M425.00,850.00 A75.00,75.00 0 0 1 575.00,850.00" fill="none" stroke="#d9333f" stroke-width="2.5"/>
  <path d="M450.00,850.00 A50.00,50.00 0 0 1 550.00,850.00" fill="none" stroke="#d9333f" stroke-width="2.5"/>
  <path d="M475.00,850.00 A25.00,25.00 0 0 1 525.00,850.00" fill="none" stroke="#d9333f" stroke-width="2.5"/>
  <path d="M600.00,850.00 A100.00,100.00 0 0 1 800.00,850.00" fill="none" stroke="#d9333f" stroke-width="2.5"/>
  <path d="M625.00,850.00 A75.00,75.00 0 0 1 775.00,850.00" fill="none" stroke="#d9333f" stroke-width="2.5"/>
  <path d="M650.00,850.00 A50.00,50.00 0 0 1 750.00,850.00" fill="none" stroke="#d9333f" stroke-width="2.5"/>
  <path d="M675.00,850.00 A25.00,25.00 0 0 1 725.00,850.00" fill="none" stroke="#d9333f" stroke-width="2.5"/>
  <path d="M800.00,850.00 A100.00,100.00 0 0 1 1000.00,850.00" fill="none" stroke="#d9333f" stroke-width="2.5"/>
  <path d="M825.00,850.00 A75.00,75.00 0 0 1 975.00,850.00" fill="none" stroke="#d9333f" stroke-width="2.5"/>
  <path d="M850.00,850.00 A50.00,50.00 0 0 1 950.00,850.00" fill="none" stroke="#d9333f" stroke-width="2.5"/>
  <path d="M875.00,850.00 A25.00,25.00 0 0 1 925.00,850.00" fill="none" stroke="#d9333f" stroke-width="2.5"/>
  <path d="M1000.00,850.00 A100.00,100.00 0 0 1 1200.00,850.00" fill="none" stroke="#d9333f" stroke-width="2.5"/>
  <path d="M1025.00,850.00 A75.00,75.00 0 0 1 1175.00,850.00" fill="none" stroke="#d9333f" stroke-width="2.5"/>
  <path d="M1050.00,850.00 A50.00,50.00 0 0 1 1150.00,850.00" fill="none" stroke="#d9333f" stroke-width="2.5"/>
  <path d="M1075.00,850.00 A25.00,25.00 0 0 1 1125.00,850.00" fill="none" stroke="#d9333f" stroke-width="2.5"/>
  <path d="M1200.00,850.00 A100.00,100.00 0 0 1 1400.00,850.00" fill="none" stroke="#d9333f" stroke-width="2.5"/>
  <path d="M1225.00,850.00 A75.00,75.00 0 0 1 1375.00,850.00" fill="none" stroke="#d9333f" stroke-width="2.5"/>
  <path d="M1250.00,850.00 A50.00,50.00 0 0 1 1350.00,850.00" fill="none" stroke="#d9333f" stroke-width="2.5"/>
  <path d="M1275.00,850.00 A25.00,25.00 0 0 1 1325.00,850.00" fill="none" stroke="#d9333f" stroke-width="2.5"/>
</svg>
