<svg xmlns="http://www.w3.org/2000/svg" width="800" height="800" viewBox="0 0 800 800">
  <circle cx="-200" cy="-200" r="141.42" fill="none" stroke="#1a1a1a" stroke-width="3"/>
  <circle cx="-200" cy="0" r="141.42" fill="none" stroke="#1a1a1a" stroke-width="3"/>
  <circle cx="-200" cy="200" r="141.42" fill="none" stroke="#1a1a1a" stroke-width="3"/>
  <circle cx="-200" cy="400" r="141.42" fill="none" stroke="#1a1a1a" stroke-width="3"/>
  <circle cx="-200" cy="600" r="141.42" fill="none" stroke="#1a1a1a" stroke-width="3"/>
  <circle cx="-200" cy="800" r="141.42" fill="none" stroke="#1a1a1a" stroke-width="3"/>
  <circle cx="-200" cy="1000" r="141.42" fill="none" stroke="#1a1a1a" stroke-width="3"/>
  <circle cx="-200" cy="1200" r="141.42" fill="none" stroke="#1a1a1a" stroke-width="3"/>
  <circle cx="0" cy="-200" r="141.42" fill="none" stroke="#1a1a1a" stroke-width="3"/>
  <circle cx="0" cy="0" r="141.42" fill="none" stroke="#1a1a1a" stroke-width="3"/>
  <circle cx="0" cy="200" r="141.42" fill="none" stroke="#1a1a1a" stroke-width="3"/>
  <circle cx="0" cy="400" r="141.42" fill="none" stroke="#1a1a1a" stroke-width="3"/>
  <circle cx="0" cy="600" r="141.42" fill="none" stroke="#1a1a1a" stroke-width="3"/>
  <circle cx="0" cy="800" r="141.42" fill="none" stroke="#1a1a1a" stroke-width="3"/>
  <circle cx="0" cy="1000" r="141.42" fill="none" stroke="#1a1a1a" stroke-width="3"/>
  <circle cx="0" cy="1200" r="141.42" fill="none" stroke="#1a1a1a" stroke-width="3"/>
  <circle cx="200" cy="-200" r="141.42" fill="none" stroke="#1a1a1a" stroke-width="3"/>
  <circle cx="200" cy="0" r="141.42" fill="none" stroke="#1a1a1a" stroke-width="3"/>
  <circle cx="200" cy="200" r="141.42" fill="none" stroke="#1a1a1a" stroke-width="3"/>
  <circle cx="200" cy="400" r="141.42" fill="none" stroke="#1a1a1a" stroke-width="3"/>
  <circle cx="200" cy="600" r="141.42" fill="none" stroke="#1a1a1a" stroke-width="3"/>
  <circle cx="200" cy="800" r="141.42" fill="none" stroke="#1a1a1a" stroke-width="3"/>
  <circle cx="200" cy="1000" r="141.42" fill="none" stroke="#1a1a1a" stroke-width="3"/>
  <circle cx="200" cy="1200" r="141.42" fill="none" stroke="#1a1a1a" stroke-width="3"/>
  <circle cx="400" cy="-200" r="141.42" fill="none" stroke="#1a1a1a" stroke-width="3"/>
  <circle cx="400" cy="0" r="141.42" fill="none" stroke="#1a1a1a" stroke-width="3"/>
  <circle cx="400" cy="200" r="141.42" fill="none" stroke="#1a1a1a" stroke-width="3"/>
  <circle cx="400" cy="400" r="141.42" fill="none" stroke="#1a1a1a" stroke-width="3"/>
  <circle cx="400" cy="600" r="141.42" fill="none" stroke="#1a1a1a" stroke-width="3"/>
  <circle cx="400" cy="800" r="141.42" fill="none" stroke="#1a1a1a" stroke-width="3"/>
  <circle cx="400" cy="1000" r="141.42" fill="none" stroke="#1a1a1a" stroke-width="3"/>
  <circle cx="400" cy="1200" r="141.42" fill="none" stroke="#1a1a1a" stroke-width="3"/>
  <circle cx="600" cy="-200" r="141.42" fill="none" stroke="#1a1a1a" stroke-width="3"/>
  <circle cx="600" cy="0" r="141.42" fill="none" stroke="#1a1a1a" stroke-width="3"/>
  <circle cx="600" cy="200" r="141.42" fill="none" stroke="#1a1a1a" stroke-width="3"/>
  <circle cx="600" cy="400" r="141.42" fill="none" stroke="#1a1a1a" stroke-width="3"/>
  <circle cx="600" cy="600" r="141.42" fill="none" stroke="#1a1a1a" stroke-width="3"/>
  <circle cx="600" cy="800" r="141.42" fill="none" stroke="#1a1a1a" stroke-width="3"/>
  <circle cx="600" cy="1000" r="141.42" fill="none" stroke="#1a1a1a" stroke-width="3"/>
  <circle cx="600" cy="1200" r="141.42" fill="none" stroke="#1a1a1a" stroke-width="3"/>
  <circle cx="800" cy="-200" r="141.42" fill="none" stroke="#1a1a1a" stroke-width="3"/>
  <circle cx="800" cy="0" r="141.42" fill="none" stroke="#1a1a1a" stroke-width="3"/>
  <circle cx="800" cy="200" r="141.42" fill="none" stroke="#1a1a1a" stroke-width="3"/>
  <circle cx="800" cy="400" r="141.42" fill="none" stroke="#1a1a1a" stroke-width="3"/>
  <circle cx="800" cy="600" r="141.42" fill="none" stroke="#1a1a1a" stroke-width="3"/>
  <circle cx="800" cy="800" r="141.42" fill="none" stroke="#1a1a1a" stroke-width="3"/>
  <circle cx="800" cy="1000" r="141.42" fill="none" stroke="#1a1a1a" stroke-width="3"/>
  <circle cx="800" cy="1200" r="141.42" fill="none" stroke="#1a1a1a" stroke-width="3"/>
  <circle cx="1000" cy="-200" r="141.42" fill="none" stroke="#1a1a1a" stroke-width="3"/>
  <circle cx="1000" cy="0" r="141.42" fill="none" stroke="#1a1a1a" stroke-width="3"/>
  <circle cx="1000" cy="200" r="141.42" fill="none" stroke="#1a1a1a" stroke-width="3"/>
  <circle cx="1000" cy="400" r="141.42" fill="none" stroke="#1a1a1a" stroke-width="3"/>
  <circle cx="1000" cy="600" r="141.42" fill="none" stroke="#1a1a1a" stroke-width="3"/>
  <circle cx="1000" cy="800" r="141.42" fill="none" stroke="#1a1a1a" stroke-width="3"/>
  <circle cx="1000" cy="1000" r="141.42" fill="none" stroke="#1a1a1a" stroke-width="3"/>
  <circle cx="1000" cy="1200" r="141.42" fill="none" stroke="#1a1a1a" stroke-width="3"/>
  <circle cx="1200" cy="-200" r="141.42" fill="none" stroke="#1a1a1a" stroke-width="3"/>
  <circle cx="1200" cy="0" r="141.42" fill="none" stroke="#1a1a1a" stroke-width="3"/>
  <circle cx="1200" cy="200" r="141.42" fill="none" stroke="#1a1a1a" stroke-width="3"/>
  <circle cx="1200" cy="400" r="141.42" fill="none" stroke="#1a1a1a" stroke-width="3"/>
  <circle cx="1200" cy="600" r="141.42" fill="none" stroke="#1a1a1a" stroke-width="3"/>
  <circle cx="1200" cy="800" r="141.42" fill="none" stroke="#1a1a1a" stroke-width="3"/>
  <circle cx="1200" cy="1000" r="141.42" fill="none" stroke="#1a1a1a" stroke-width="3"/>
  <circle cx="1200" cy="1200" r="141.42" fill="none" stroke="#1a1a1a" stroke-width="3"/>
</svg>
